<?xml version="1.0" encoding="UTF-8" standalone="no"?>
<!-- Created with Inkscape (http://www.inkscape.org/) -->

<svg
   width="1000"
   height="1000"
   viewBox="0 0 1000 1000"
   version="1.1"
   id="svg5"
   xml:space="preserve"
   inkscape:version="1.2.2 (b0a8486541, 2022-12-01)"
   sodipodi:docname="temoji-logo.svg"
   inkscape:export-filename="temoji-logo.png"
   inkscape:export-xdpi="96"
   inkscape:export-ydpi="96"
   xmlns:inkscape="http://www.inkscape.org/namespaces/inkscape"
   xmlns:sodipodi="http://sodipodi.sourceforge.net/DTD/sodipodi-0.dtd"
   xmlns="http://www.w3.org/2000/svg"
   xmlns:svg="http://www.w3.org/2000/svg"><sodipodi:namedview
     id="namedview7"
     pagecolor="#505050"
     bordercolor="#eeeeee"
     borderopacity="1"
     inkscape:showpageshadow="0"
     inkscape:pageopacity="0"
     inkscape:pagecheckerboard="0"
     inkscape:deskcolor="#505050"
     inkscape:document-units="px"
     showgrid="false"
     inkscape:lockguides="false"
     inkscape:zoom="2"
     inkscape:cx="290.25"
     inkscape:cy="492"
     inkscape:window-width="1360"
     inkscape:window-height="700"
     inkscape:window-x="0"
     inkscape:window-y="0"
     inkscape:window-maximized="1"
     inkscape:current-layer="layer4" /><defs
     id="defs2" /><g
     inkscape:label="background"
     inkscape:groupmode="layer"
     id="layer1"
     sodipodi:insensitive="true"
     style="display:inline" /><g
     inkscape:groupmode="layer"
     id="layer2"
     inkscape:label="logo"
     style="display:inline"><path
       id="path1526"
       style="display:inline;fill:#ffff00;stroke:#000000;stroke-width:15;stroke-linecap:butt;stroke-linejoin:miter;stroke-dasharray:none;stroke-opacity:1"
       d="M 931.90234,117.27157 C 516.8058,236.43621 118.1914,157.93368 118.1914,157.93368 c 0,0 124.71458,174.87717 85.91016,304.27539 0,0 148.00648,-84.68486 255.51367,-80.28906 0,0 55.33052,497.22483 17.57422,550.33984 0,0 131.94925,-128.69048 236.2168,-89.47852 -38.84657,-73.69472 -52.91016,-459.18945 -52.91016,-459.18945 88.09617,-2.81364 264.01953,53.25391 264.01953,53.25391 -39.26411,-88.61389 7.38672,-319.57422 7.38672,-319.57422 z"
       sodipodi:nodetypes="ccccccccc"
       inkscape:label="T" /></g><g
     inkscape:groupmode="layer"
     id="layer4"
     inkscape:label="keychain"><circle
       style="fill:#000000;stroke-width:15;stroke-dasharray:none"
       id="path2626"
       cx="323.50159"
       cy="372.48672"
       r="10"
       inkscape:label="T-hole" /><g
       id="g3734"
       transform="matrix(1.3410946,0,0,1.3410946,287.79445,419.58482)"
       inkscape:label="slightly-smiling-face"
       style="display:inline"><g
         id="color"><circle
           cx="36.000099"
           cy="36"
           r="22.999901"
           fill="#fcea2b"
           id="circle3704" /></g><g
         id="hair" /><g
         id="skin" /><g
         id="skin-shadow"
         inkscape:label="skin-shadow" /><g
         id="line"><circle
           cx="36"
           cy="36"
           r="23"
           fill="none"
           stroke="#000000"
           stroke-linecap="round"
           stroke-linejoin="round"
           stroke-width="2"
           id="circle3710" /><path
           fill="none"
           stroke="#000000"
           stroke-linecap="round"
           stroke-linejoin="round"
           stroke-width="2"
           d="m 45.8149,44.9293 c -2.8995,1.6362 -6.2482,2.5699 -9.8149,2.5699 -3.5667,0 -6.9153,-0.9336 -9.8149,-2.5699"
           id="path3712" /><path
           d="m 30,31 c 0,1.6568 -1.3448,3 -3,3 -1.6553,0 -3,-1.3433 -3,-3 0,-1.6552 1.3447,-3 3,-3 1.6552,0 3,1.3448 3,3"
           id="path3714" /><path
           d="m 48,31 c 0,1.6568 -1.3447,3 -3,3 -1.6553,0 -3,-1.3433 -3,-3 0,-1.6552 1.3447,-3 3,-3 1.6553,0 3,1.3448 3,3"
           id="path3716" /></g></g><circle
       style="fill:#000000;stroke-width:10.1972;stroke-dasharray:none"
       id="path2626-8"
       cx="333.06488"
       cy="448.67819"
       r="6.798111"
       inkscape:label="Emoji-hole" /><path
       id="path1856"
       style="display:inline;fill:#b3b3b3;stroke-width:14.3373;stroke-dasharray:none"
       inkscape:label="ring"
       d="M 322.14453 368.36719 A 42.5 42.5 0 0 0 289.57227 409.67773 A 42.5 42.5 0 0 0 332.07227 452.17773 A 42.5 42.5 0 0 0 333.02344 452.10938 L 333.31836 444.76953 A 35 35 0 0 1 331.8457 444.88477 A 35 35 0 0 1 296.8457 409.88477 A 35 35 0 0 1 324.19922 375.79688 L 322.14453 368.36719 z M 373.57227 400.55078 L 366.06445 402.55078 A 35 35 0 0 1 366.8457 409.88477 A 35 35 0 0 1 350.80469 439.18945 C 350.9377 439.26541 352.57396 440.12881 354.15625 441.17578 C 355.62577 442.14815 357.0877 443.40129 357.27539 443.58398 C 357.31607 443.61983 357.34584 443.6471 357.38477 443.68164 A 42.5 42.5 0 0 0 374.57227 409.67773 A 42.5 42.5 0 0 0 373.57227 400.55078 z " /></g></svg>
